<?xml version="1.0" encoding="utf-8"?>
<!-- Generator: Adobe Illustrator 28.1.0, SVG Export Plug-In . SVG Version: 6.00 Build 0)  -->
<svg version="1.1" id="Camada_1" xmlns="http://www.w3.org/2000/svg" xmlns:xlink="http://www.w3.org/1999/xlink" x="0px" y="0px"
	 viewBox="0 0 800 800" style="enable-background:new 0 0 800 800;" xml:space="preserve">
<style type="text/css">
	.st0{fill-rule:evenodd;clip-rule:evenodd;fill:#003770;}
	.st1{fill-rule:evenodd;clip-rule:evenodd;fill:#39A935;}
</style>
<g>
	<g>
		<path class="st0" d="M346.41,494.23c-2.42,1.06-4.56,2.8-6.39,5.2c-1.17,1.56-2.05,3.25-2.68,5.09c-0.62,1.84-0.93,3.7-0.93,5.63
			c0,3.26,0.91,5.96,2.74,8.1c1.83,2.14,4.1,3.22,6.84,3.22c1.43,0,2.76-0.33,3.98-0.99c1.22-0.67,2.38-1.69,3.49-3.08l-0.52,3.52
			h5.33l4.16-28.26h-6.58C351.98,492.64,348.83,493.18,346.41,494.23L346.41,494.23z M354.24,512.19L354.24,512.19
			c-0.94,1.59-1.95,2.79-3.06,3.58c-1.1,0.79-2.27,1.19-3.52,1.19c-1.61,0-2.91-0.68-3.93-2.04c-1.01-1.36-1.51-3.14-1.51-5.37
			c0-3.61,1.18-6.57,3.55-8.87c2.36-2.31,5.42-3.46,9.17-3.46c0.39,0,0.69,0,0.89,0.01c0.21,0.01,0.39,0.03,0.55,0.05L354.24,512.19
			z"/>
		<polygon class="st0" points="104.43,483.19 121.53,483.19 122.29,478.11 99.47,478.11 93.08,520.91 98.93,520.91 101.74,501.48 
			116.82,501.48 117.58,496.22 102.47,496.22 		"/>
		<path class="st0" d="M696.82,494.23c-2.42,1.06-4.56,2.8-6.39,5.2c-1.17,1.56-2.05,3.25-2.68,5.09c-0.62,1.84-0.93,3.7-0.93,5.63
			c0,3.26,0.91,5.96,2.73,8.1c1.83,2.14,4.1,3.22,6.84,3.22c1.43,0,2.76-0.33,3.98-0.99c1.22-0.67,2.38-1.69,3.49-3.08l-0.52,3.52
			h5.32l4.16-28.26h-6.58C702.38,492.64,699.24,493.18,696.82,494.23L696.82,494.23z M704.65,512.19L704.65,512.19
			c-0.94,1.59-1.95,2.79-3.06,3.58c-1.1,0.79-2.28,1.19-3.52,1.19c-1.61,0-2.91-0.68-3.93-2.04c-1.01-1.36-1.51-3.14-1.51-5.37
			c0-3.61,1.18-6.57,3.55-8.87c2.36-2.31,5.42-3.46,9.17-3.46c0.39,0,0.69,0,0.89,0.01c0.21,0.01,0.39,0.03,0.56,0.05L704.65,512.19
			z"/>
		<polygon class="st0" points="149.83,497.54 164.42,497.54 145.89,520.35 145.83,520.91 171.46,520.91 172.46,515.95 
			155.98,515.95 174.39,493.23 174.39,492.64 150.54,492.64 		"/>
		<path class="st0" d="M139.53,492.64c-3.85,0-6.99,0.53-9.42,1.59c-2.42,1.06-4.56,2.8-6.39,5.2c-1.17,1.56-2.05,3.25-2.68,5.09
			c-0.62,1.84-0.93,3.7-0.93,5.63c0,3.26,0.91,5.96,2.74,8.1c1.83,2.14,4.1,3.22,6.84,3.22c1.43,0,2.76-0.33,3.98-0.99
			c1.22-0.67,2.38-1.69,3.49-3.08l-0.52,3.52h5.32l4.16-28.26H139.53L139.53,492.64z M137.94,512.19L137.94,512.19
			c-0.94,1.59-1.95,2.79-3.06,3.58c-1.1,0.79-2.28,1.19-3.52,1.19c-1.61,0-2.91-0.68-3.93-2.04c-1.01-1.36-1.51-3.14-1.51-5.37
			c0-3.61,1.18-6.57,3.55-8.87c2.36-2.31,5.42-3.46,9.17-3.46c0.39,0,0.69,0,0.89,0.01c0.21,0.01,0.39,0.03,0.55,0.05L137.94,512.19
			z"/>
		<path class="st0" d="M470.34,491.92h-1.25c-2.63,0-4.95,0.28-6.97,0.85c-2,0.55-3.8,1.42-5.4,2.58c-2.34,1.71-4.14,3.76-5.41,6.15
			c-1.26,2.38-1.9,4.94-1.9,7.64c0,3.82,1.3,6.83,3.92,9.03c2.62,2.2,6.24,3.3,10.85,3.3c0.75,0,1.7-0.03,2.85-0.1
			c1.14-0.08,2.59-0.2,4.34-0.39l6.39-42.86h-5.45L470.34,491.92L470.34,491.92z M466.55,516.66L466.55,516.66
			c-0.41,0.09-0.86,0.18-1.34,0.23c-0.48,0.05-1.01,0.07-1.61,0.07c-2.55,0-4.62-0.79-6.19-2.37c-1.58-1.58-2.37-3.65-2.37-6.22
			c0-3.44,1.21-6.27,3.62-8.48c2.42-2.19,5.57-3.3,9.47-3.3c0.14,0,0.36,0.01,0.66,0.03c0.29,0.02,0.51,0.03,0.66,0.03
			L466.55,516.66z"/>
		<path class="st0" d="M533.83,492.03c-2.73,0-4.92,0.71-6.56,2.13c-1.64,1.41-2.47,3.28-2.47,5.57c0,1.49,0.37,2.8,1.09,3.93
			c0.72,1.12,2.4,2.61,5.03,4.46l0.11,0.09c3.35,2.35,5.02,4.18,5.02,5.48c0,0.84-0.36,1.52-1.08,2.08
			c-0.71,0.55-1.62,0.82-2.72,0.82c-1.17,0-2.41-0.33-3.75-0.99c-1.34-0.67-2.95-1.77-4.85-3.29l-1.32,5.26
			c1.78,1.35,3.48,2.33,5.1,2.96c1.62,0.61,3.29,0.93,5,0.93c2.69,0,4.89-0.75,6.62-2.27c1.72-1.5,2.59-3.44,2.59-5.81
			c0-1.48-0.34-2.81-1.04-3.96c-0.69-1.16-1.91-2.4-3.66-3.75c-0.69-0.51-1.63-1.18-2.82-2c-2.59-1.79-3.88-3.24-3.88-4.34
			c0-0.73,0.3-1.33,0.92-1.79c0.61-0.46,1.42-0.69,2.41-0.69c1.28,0,2.66,0.31,4.13,0.95c1.46,0.62,3.01,1.58,4.61,2.84l0.46-5.69
			c-1.33-0.97-2.74-1.71-4.24-2.2C537.06,492.27,535.48,492.03,533.83,492.03z"/>
		<path class="st0" d="M564.26,511.06c-1.5,1.9-2.97,3.32-4.4,4.28c-1.43,0.96-2.79,1.44-4.09,1.44c-1.06,0-1.88-0.28-2.43-0.84
			c-0.57-0.55-0.85-1.39-0.85-2.48c0-0.29,0.02-0.69,0.07-1.2c0.05-0.51,0.13-1.04,0.2-1.62l2.52-17.99h-5.42l-2.57,16.8
			c-0.13,0.81-0.21,1.59-0.27,2.31c-0.06,0.72-0.09,1.4-0.09,2.04c0,2.46,0.58,4.37,1.75,5.72c1.18,1.35,2.82,2.02,4.95,2.02
			c1.63,0,3.27-0.43,4.92-1.28c1.66-0.84,3.36-2.15,5.12-3.93l-0.62,4.58h5.45l4.19-28.26h-5.45L564.26,511.06z"/>
		<path class="st0" d="M586.13,494.23c-2.42,1.06-4.56,2.8-6.39,5.2c-1.17,1.56-2.06,3.25-2.68,5.09c-0.62,1.84-0.93,3.7-0.93,5.63
			c0,3.26,0.91,5.96,2.74,8.1c1.82,2.14,4.1,3.22,6.84,3.22c1.43,0,2.75-0.33,3.98-0.99c1.22-0.67,2.38-1.69,3.49-3.08l-0.52,3.52
			h5.32l4.16-28.26h-6.58C591.69,492.64,588.55,493.18,586.13,494.23L586.13,494.23z M593.96,512.19L593.96,512.19
			c-0.94,1.59-1.95,2.79-3.06,3.58c-1.1,0.79-2.28,1.19-3.52,1.19c-1.61,0-2.91-0.68-3.92-2.04c-1.01-1.36-1.51-3.14-1.51-5.37
			c0-3.61,1.18-6.57,3.55-8.87c2.36-2.31,5.42-3.46,9.17-3.46c0.39,0,0.69,0,0.89,0.01c0.21,0.01,0.39,0.03,0.55,0.05L593.96,512.19
			z"/>
		<polygon class="st0" points="629.4,510.26 625.71,492.64 620.26,492.64 626.59,520.91 629.34,520.91 643.81,492.64 638.18,492.64 
					"/>
		<path class="st0" d="M488.53,494.23c-2.42,1.06-4.56,2.8-6.39,5.2c-1.17,1.56-2.06,3.25-2.68,5.09c-0.62,1.84-0.93,3.7-0.93,5.63
			c0,3.26,0.91,5.96,2.73,8.1c1.83,2.14,4.1,3.22,6.84,3.22c1.43,0,2.76-0.33,3.98-0.99c1.22-0.67,2.38-1.69,3.49-3.08l-0.52,3.52
			h5.33l4.15-28.26h-6.58C494.1,492.64,490.96,493.18,488.53,494.23L488.53,494.23z M496.36,512.19L496.36,512.19
			c-0.94,1.59-1.95,2.79-3.06,3.58c-1.1,0.79-2.28,1.19-3.52,1.19c-1.61,0-2.91-0.68-3.93-2.04c-1.01-1.36-1.51-3.14-1.51-5.37
			c0-3.61,1.18-6.57,3.55-8.87c2.36-2.31,5.42-3.46,9.17-3.46c0.39,0,0.69,0,0.89,0.01c0.21,0.01,0.39,0.03,0.55,0.05L496.36,512.19
			z"/>
		<path class="st0" d="M419.31,491.98c-3.92,0-7.18,1.53-9.76,4.58c-2.58,3.06-3.87,6.93-3.87,11.63c0,3.91,1.14,7.11,3.41,9.6
			c2.27,2.48,5.18,3.73,8.73,3.73c1.59,0,3.17-0.26,4.76-0.78c1.58-0.51,3.18-1.32,4.81-2.39l0.89-5.7
			c-1.95,1.49-3.73,2.58-5.3,3.25c-1.59,0.68-3.13,1.01-4.67,1.01c-1.93,0-3.57-0.77-4.9-2.31c-1.33-1.54-1.98-3.47-1.98-5.77v-0.7
			l0.12-1.87h17.85v-3.22c0-3.56-0.87-6.3-2.6-8.2C425.08,492.93,422.58,491.98,419.31,491.98L419.31,491.98z M424.34,502.31
			L424.34,502.31h-11.89c0.63-2.03,1.51-3.54,2.64-4.51c1.13-0.97,2.59-1.45,4.35-1.45c1.51,0,2.7,0.47,3.58,1.41
			c0.88,0.93,1.32,2.2,1.32,3.79V502.31z"/>
		<path class="st0" d="M275.81,492.03c-3.7,0-6.87,1.63-9.53,4.9c-2.66,3.26-3.99,7.25-3.99,11.96c0,3.91,0.96,6.98,2.87,9.22
			c1.92,2.24,4.55,3.35,7.89,3.35c4.02,0,7.35-1.59,10-4.76c2.65-3.16,3.98-7.17,3.98-12.01c0-3.94-1-7.03-3.02-9.28
			C282.01,493.16,279.27,492.03,275.81,492.03L275.81,492.03z M279.04,513.47L279.04,513.47c-1.5,2.41-3.43,3.61-5.74,3.61
			c-1.62,0-2.89-0.69-3.84-2.08c-0.95-1.39-1.42-3.29-1.42-5.69c0-3.51,0.79-6.52,2.37-9.03c1.58-2.51,3.44-3.76,5.58-3.76
			c1.69,0,3.01,0.66,3.94,1.99c0.93,1.33,1.39,3.19,1.39,5.6C281.31,507.95,280.56,511.07,279.04,513.47z"/>
		<path class="st0" d="M381.13,492.22c-1.35,0-2.57,0.42-3.67,1.25c-1.1,0.83-2.34,2.34-3.73,4.5l0.76-5.33h-5.26l-4.22,28.26h5.26
			l2.38-15.96c1.17-2.55,2.38-4.41,3.64-5.59c1.26-1.17,2.68-1.75,4.25-1.75c0.24,0,0.49,0.01,0.75,0.04
			c0.25,0.03,0.52,0.08,0.8,0.14l1.41-5.08c-0.45-0.17-0.87-0.28-1.27-0.36C381.84,492.26,381.47,492.22,381.13,492.22z"/>
		<path class="st0" d="M652.24,480.87c-0.83,0-1.54,0.29-2.13,0.86c-0.57,0.58-0.87,1.28-0.87,2.13c0,0.85,0.28,1.55,0.85,2.12
			c0.57,0.57,1.28,0.85,2.14,0.85c0.81,0,1.51-0.29,2.08-0.87c0.57-0.57,0.85-1.28,0.85-2.1c0-0.82-0.28-1.52-0.85-2.12
			C653.74,481.16,653.05,480.87,652.24,480.87z"/>
		<polygon class="st0" points="644.16,520.91 649.61,520.91 653.73,492.64 648.29,492.64 		"/>
		<path class="st0" d="M321.18,491.92c-0.76,0-1.53,0.07-2.32,0.23c-0.78,0.16-1.58,0.39-2.4,0.69l1.01-7.07h-5.38l-1.5,10.28
			c-1.6,1.43-2.91,2.97-3.97,4.63c-1.04,1.67-1.58,2.87-1.58,3.62c0,0.19,0.05,0.34,0.15,0.46c0.08,0.13,0.2,0.19,0.31,0.19
			c0.17,0,0.66-0.62,1.47-1.84c0.81-1.22,1.81-2.26,2.97-3.11l-5.2,35.13h5.45l2.01-13.73h1.62c2.48,0,4.67-0.2,6.58-0.58
			c1.92-0.38,3.53-0.95,4.83-1.71c2.29-1.4,4.11-3.32,5.48-5.73c1.37-2.41,2.05-4.93,2.05-7.57c0-4.22-1.06-7.59-3.16-10.1
			C327.5,493.18,324.69,491.92,321.18,491.92L321.18,491.92z M323.87,513.77L323.87,513.77c-2.25,2.05-5.36,3.07-9.33,3.07
			c-0.43,0-0.75,0-0.98-0.01c-0.22-0.01-0.44-0.03-0.64-0.05l2.93-19.96c0.64-0.28,1.23-0.49,1.79-0.63c0.56-0.14,1.09-0.2,1.58-0.2
			c2.5,0,4.45,0.83,5.88,2.49c1.43,1.66,2.14,3.92,2.14,6.76C327.23,508.88,326.12,511.72,323.87,513.77z"/>
		<path class="st0" d="M398.41,486.72h-5.57l-1.37,5.93h-4.84l-0.89,4.01h4.78l-2.52,12.17c-0.26,1.26-0.45,2.28-0.54,3.03
			c-0.1,0.76-0.16,1.44-0.16,2.06c0,2.28,0.71,4.12,2.13,5.51c1.41,1.4,3.26,2.1,5.52,2.1c0.93,0,1.93-0.15,3-0.44
			c1.06-0.3,2.19-0.75,3.39-1.37v-4.95c-0.88,0.55-1.72,0.96-2.53,1.23c-0.8,0.28-1.55,0.42-2.21,0.42c-1.18,0-2.07-0.29-2.65-0.88
			c-0.57-0.58-0.87-1.46-0.87-2.64c0-0.47,0.04-1.02,0.13-1.65c0.07-0.64,0.2-1.4,0.36-2.3l2.57-12.3h5.59l0.92-4.01h-5.57
			L398.41,486.72z"/>
		<path class="st0" d="M222.13,491.98c-1.63,0-3.27,0.43-4.92,1.29c-1.65,0.86-3.36,2.16-5.11,3.91l0.7-4.53h-5.45l-4.28,28.26h5.48
			l3-18.64c1.5-1.9,2.97-3.33,4.4-4.28c1.42-0.96,2.79-1.44,4.09-1.44c1.09,0,1.9,0.28,2.45,0.84c0.55,0.55,0.83,1.39,0.83,2.48
			c0,0.3-0.02,0.71-0.06,1.19c-0.04,0.49-0.1,1.03-0.18,1.63l-2.58,18.22h5.45l2.51-16.85c0.13-0.81,0.21-1.58,0.27-2.31
			c0.06-0.72,0.09-1.39,0.09-2c0-2.47-0.58-4.38-1.75-5.73C225.9,492.66,224.26,491.98,222.13,491.98z"/>
		<path class="st0" d="M189.1,491.98c-3.93,0-7.18,1.53-9.76,4.58c-2.58,3.06-3.87,6.93-3.87,11.63c0,3.91,1.14,7.11,3.41,9.6
			c2.27,2.48,5.18,3.73,8.73,3.73c1.59,0,3.18-0.26,4.76-0.78c1.58-0.51,3.18-1.32,4.81-2.39l0.89-5.7
			c-1.95,1.49-3.73,2.58-5.3,3.25c-1.59,0.68-3.13,1.01-4.67,1.01c-1.93,0-3.57-0.77-4.9-2.31c-1.32-1.54-1.98-3.47-1.98-5.77v-0.7
			l0.13-1.87h17.85v-3.22c0-3.56-0.87-6.3-2.6-8.2C194.86,492.93,192.37,491.98,189.1,491.98L189.1,491.98z M194.12,502.31
			L194.12,502.31h-11.89c0.63-2.03,1.51-3.54,2.64-4.51c1.13-0.97,2.59-1.45,4.35-1.45c1.51,0,2.71,0.47,3.58,1.41
			c0.88,0.93,1.32,2.2,1.32,3.79V502.31z"/>
		<path class="st0" d="M678.62,491.92h-1.25c-2.63,0-4.95,0.28-6.97,0.85c-2,0.55-3.8,1.42-5.4,2.58c-2.34,1.71-4.14,3.76-5.41,6.15
			c-1.26,2.38-1.9,4.94-1.9,7.64c0,3.82,1.3,6.83,3.93,9.03c2.62,2.2,6.24,3.3,10.85,3.3c0.75,0,1.7-0.03,2.85-0.1
			c1.14-0.08,2.59-0.2,4.35-0.39l6.39-42.86h-5.45L678.62,491.92L678.62,491.92z M674.83,516.66L674.83,516.66
			c-0.41,0.09-0.86,0.18-1.34,0.23c-0.48,0.05-1.01,0.07-1.61,0.07c-2.55,0-4.62-0.79-6.19-2.37c-1.58-1.58-2.37-3.65-2.37-6.22
			c0-3.44,1.21-6.27,3.62-8.48c2.42-2.19,5.57-3.3,9.47-3.3c0.14,0,0.36,0.01,0.66,0.03c0.29,0.02,0.51,0.03,0.66,0.03
			L674.83,516.66z"/>
		<path class="st0" d="M254.21,491.92h-1.25c-2.63,0-4.95,0.28-6.97,0.85c-2,0.55-3.8,1.42-5.4,2.58c-2.34,1.71-4.15,3.76-5.41,6.15
			c-1.26,2.38-1.9,4.94-1.9,7.64c0,3.82,1.3,6.83,3.92,9.03c2.62,2.2,6.24,3.3,10.85,3.3c0.75,0,1.7-0.03,2.85-0.1
			c1.14-0.08,2.59-0.2,4.35-0.39l6.39-42.86h-5.45L254.21,491.92L254.21,491.92z M250.43,516.66L250.43,516.66
			c-0.41,0.09-0.86,0.18-1.34,0.23c-0.48,0.05-1.01,0.07-1.61,0.07c-2.55,0-4.62-0.79-6.19-2.37c-1.58-1.58-2.37-3.65-2.37-6.22
			c0-3.44,1.21-6.27,3.62-8.48c2.42-2.19,5.57-3.3,9.47-3.3c0.15,0,0.36,0.01,0.66,0.03c0.29,0.02,0.51,0.03,0.66,0.03
			L250.43,516.66z"/>
	</g>
	<g>
		<path class="st1" d="M127.93,278.08c6.33,35.32,23.41,63.92,49.7,87.6c-31.04,20.05-52.39,36.62-74.16,62.48
			C53.67,379.92,73.99,305.11,127.93,278.08z"/>
		<path class="st0" d="M214.86,396.27l26.75,20.82c-25.45,36.86-74.7,46.38-114.09,28.21C151.31,431.73,192.05,413.51,214.86,396.27
			z"/>
		<path class="st0" d="M95.06,456.54c23.52-39.91,56.39-62.39,89.55-84.3c7.56,6.05,15.12,12.1,22.69,18.15
			c-14,9.68-29.76,19.12-45.6,26.87C139.26,428.25,116.56,439.86,95.06,456.54z"/>
		<path class="st1" d="M216.87,282.08c13.3,0,24.09,10.79,24.09,24.09c0,13.31-10.79,24.09-24.09,24.09
			c-13.31,0-24.09-10.79-24.09-24.09C192.78,292.87,203.56,282.08,216.87,282.08z"/>
		<path class="st1" d="M136.33,264.87c2.3,34.99,18.24,65.63,47.24,93.04c26.33,24.88,57.06,41.61,87.01,72.85
			c-11.35-28.9-32.95-57.89-63.91-86.77C181.05,320.08,153.25,294.83,136.33,264.87z"/>
		<path class="st0" d="M221.5,346.73c5.7,5.25,11.22,10.67,16.63,16.22c12.84-15.66,22.55-34.6,28.79-57.17
			C253.54,320.92,238.77,334.89,221.5,346.73z"/>
		<path class="st0" d="M667.41,393.31c2.96-12.49,11.84-18.83,26.64-19.01h30.91l-1.78,13.86l-27.53,0.18
			c-7.87,0.06-12.2,3.67-12.97,10.84l-3.2,31.62c-0.77,7.22,2.9,10.36,11.02,9.95h27l-1.6,14.74h-28.96
			c-16.46,0-25.52-8.59-24.51-21.14L667.41,393.31L667.41,393.31z M592.98,454.95L592.98,454.95l1.6-15.1l31.09,0.18
			c10.78,0.71,18-11.72-0.18-18.12c-8.44-3.64-15.26-7.01-19.61-11.23c-5.26-5.09-7.09-10.81-5.97-16.31
			c2.55-13.85,14.33-20.84,29.49-20.61l26.29,0.18l-1.42,15.46h-27.18c-9-0.89-14.45,5.15-7.99,10.12
			c4.16,3.79,16.93,7.44,26.25,14.74c6.37,4.99,9.9,12.1,7.68,20.08c-3.76,13.09-13.24,20.67-30.73,20.96L592.98,454.95
			L592.98,454.95z M590.85,388.33L590.85,388.33l1.42-14.03l-27.89-0.18c-11.02-0.36-28.42,3.55-30.02,22.2l-4.09,37.13
			c-2.31,16.46,11.55,21.73,21.14,21.67l31.8-0.18l1.78-13.68h-27.18c-6.69,0.35-11.72-2.67-11.01-8.53l0.89-11.01h31.09l1.24-13.86
			l-30.91,0.18l0.53-8.53c0.62-9,6.78-11.49,15.46-11.01L590.85,388.33L590.85,388.33z M483.49,386.2L483.49,386.2
			c15.5,0,26.94,12.09,25.47,26.91c-1.46,14.83-15.3,26.91-30.8,26.91c-15.5,0-26.94-12.09-25.47-26.91
			C454.15,398.29,467.99,386.2,483.49,386.2L483.49,386.2z M484.98,371.1c-24.19,0-45.79,18.87-48.07,42.01
			c-2.29,23.14,15.57,42.01,39.77,42.01c24.2,0,45.79-18.87,48.07-42.01C527.03,389.97,509.17,371.1,484.98,371.1L484.98,371.1
			L484.98,371.1z M359.02,454.2L359.02,454.2l15.94,0.17l5.54-54.91l18.53,43.83c4.97,15.65,23.62,18.48,25.81-6.58l6.93-64.1
			h-15.94l-5.89,54.91l-17.32-42.44c-4.85-16.36-23.56-19.16-25.99,0.18L359.02,454.2L359.02,454.2z M296.65,372.18L296.65,372.18
			h16.16l-5.12,47.89c-1.67,17.35,4.71,19.57,10.97,19.92c11.05,0.37,17.27-6.14,18.67-19.89l5.02-47.64h16.44l-5.29,45.41
			c-1.43,22.51-13.87,37.88-36.78,37.06c-21.59-1.59-26.89-17.31-25.35-31.48L296.65,372.18z"/>
	</g>
</g>
</svg>
